<svg width="1792" height="1024" viewBox="0 0 1792 1024" xmlns="http://www.w3.org/2000/svg">
  <defs>
    <linearGradient id="bgdesplieg" x1="0%" y1="0%" x2="100%" y2="100%">
      <stop offset="0%" style="stop-color:#0a0a0a"/><stop offset="100%" style="stop-color:#0d1520"/>
    </linearGradient>
    <filter id="glowdesplieg"><feGaussianBlur stdDeviation="3"/><feMerge><feMergeNode/><feMergeNode in="SourceGraphic"/></feMerge></filter>
  </defs>
  <rect width="100%" height="100%" fill="url(#bgdesplieg)"/>
  <g filter="url(#glowdesplieg)">
    <path d="M100 512 Q400 512 500 350 T900 400 T1300 550 T1692 512" stroke="#00E5FF" stroke-width="4" fill="none" opacity="0.6" stroke-dasharray="10,5"/>
    <rect x="180" y="470" width="80" height="80" rx="10" fill="#0a0a0a" stroke="#00E5FF" stroke-width="2"/>
    <rect x="420" y="310" width="80" height="80" rx="10" fill="#0a0a0a" stroke="#00FF88" stroke-width="2"/>
    <rect x="700" y="360" width="80" height="80" rx="10" fill="#0a0a0a" stroke="#00E5FF" stroke-width="2"/>
    <rect x="1000" y="510" width="80" height="80" rx="10" fill="#0a0a0a" stroke="#5227FF" stroke-width="2"/>
    <rect x="1300" y="510" width="80" height="80" rx="10" fill="#0a0a0a" stroke="#00FF88" stroke-width="2"/>
    <circle cx="220" cy="510" r="20" fill="none" stroke="#00E5FF" stroke-width="2"/><circle cx="220" cy="510" r="8" fill="#00E5FF"/>
    <polygon points="460,330 475,350 445,350" fill="#00FF88"/>
    <circle cx="740" cy="400" r="22" fill="none" stroke="#00E5FF" stroke-width="2"/><path d="M728 400 L736 410 L758 388" stroke="#00E5FF" stroke-width="3" fill="none"/>
    <path d="M1040,530 L1040,570 L1060,550 Z" fill="#5227FF"/>
    <path d="M1325,545 Q1325,530 1340,530 Q1355,520 1370,530 Q1385,530 1385,545 Q1385,560 1355,560 Q1325,560 1325,545 Z" fill="none" stroke="#00FF88" stroke-width="2"/>
  </g>
  <g opacity="0.15" font-family="monospace" font-size="14" fill="#00E5FF">
    <text x="100" y="180">$ terraform apply</text><text x="1450" y="150">$ docker build .</text>
    <text x="150" y="850">$ git push origin main</text><text x="1350" y="880">$ kubectl apply -f</text>
  </g>
  <rect x="30" y="30" width="1732" height="964" fill="none" stroke="#00E5FF" stroke-width="1" opacity="0.15" rx="20"/>
</svg>