<svg width="1792" height="1024" viewBox="0 0 1792 1024" xmlns="http://www.w3.org/2000/svg">
  <defs>
    <linearGradient id="bgreactser" x1="0%" y1="0%" x2="100%" y2="100%">
      <stop offset="0%" style="stop-color:#0a0a0a"/><stop offset="100%" style="stop-color:#111827"/>
    </linearGradient>
    <filter id="glowreactser"><feGaussianBlur stdDeviation="4"/><feMerge><feMergeNode/><feMergeNode in="SourceGraphic"/></feMerge></filter>
  </defs>
  <rect width="100%" height="100%" fill="url(#bgreactser)"/>
  <g filter="url(#glowreactser)">
    <g transform="translate(350, 130)">
      <rect width="420" height="180" rx="15" fill="#0a0a0a" stroke="#00E5FF" stroke-width="3"/>
      <text x="210" y="70" text-anchor="middle" fill="#00E5FF" font-family="system-ui" font-size="32" font-weight="bold">FRONTEND</text>
      <g transform="translate(60, 100)" fill="none" stroke="#00E5FF" stroke-width="2" opacity="0.5">
        <rect x="0" y="0" width="60" height="40" rx="6"/><rect x="80" y="0" width="60" height="40" rx="6"/>
        <rect x="160" y="0" width="60" height="40" rx="6"/><rect x="240" y="0" width="60" height="40" rx="6"/>
      </g>
    </g>
    <g transform="translate(686, 400)">
      <rect width="420" height="180" rx="15" fill="#0a0a0a" stroke="#5227FF" stroke-width="3"/>
      <text x="210" y="70" text-anchor="middle" fill="#5227FF" font-family="system-ui" font-size="32" font-weight="bold">API</text>
      <g transform="translate(100, 90)" opacity="0.6">
        <path d="M0 30 L40 0 L80 30 L40 60 Z" fill="none" stroke="#5227FF" stroke-width="2"/>
        <path d="M120 30 L160 0 L200 30 L160 60 Z" fill="none" stroke="#5227FF" stroke-width="2"/>
      </g>
    </g>
    <g transform="translate(1022, 680)">
      <rect width="420" height="180" rx="15" fill="#0a0a0a" stroke="#FF6B35" stroke-width="3"/>
      <text x="210" y="70" text-anchor="middle" fill="#FF6B35" font-family="system-ui" font-size="32" font-weight="bold">DATABASE</text>
      <g transform="translate(130, 85)" fill="none" stroke="#FF6B35" stroke-width="2" opacity="0.6">
        <ellipse cx="80" cy="15" rx="70" ry="20"/><path d="M10 15 L10 55"/><path d="M150 15 L150 55"/><ellipse cx="80" cy="55" rx="70" ry="20"/>
      </g>
    </g>
    <path d="M560 310 C620 350 660 380 686 490" stroke="#00E5FF" stroke-width="3" fill="none" opacity="0.4"/>
    <path d="M1106 580 C1120 620 1130 650 1142 680" stroke="#5227FF" stroke-width="3" fill="none" opacity="0.4"/>
  </g>
</svg>